<mxfile host="app.diagrams.net" agent="Mozilla/5.0 (Windows NT 10.0; Win64; x64) AppleWebKit/537.36 (KHTML, like Gecko) Chrome/131.0.0.0 Safari/537.36 Edg/131.0.0.0" version="24.8.6">
  <diagram name="Page-1" id="QVU8lje6nGHsbSwiQ7tf">
    <mxGraphModel dx="2946" dy="2207" grid="1" gridSize="10" guides="1" tooltips="1" connect="1" arrows="1" fold="1" page="1" pageScale="1" pageWidth="850" pageHeight="1100" math="0" shadow="0">
      <root>
        <mxCell id="0" />
        <mxCell id="1" parent="0" />
        <mxCell id="EXt4HgNgpCg-pAP-4QSE-22" value="" style="edgeStyle=orthogonalEdgeStyle;rounded=0;orthogonalLoop=1;jettySize=auto;html=1;" parent="1" source="EXt4HgNgpCg-pAP-4QSE-15" target="EXt4HgNgpCg-pAP-4QSE-16" edge="1">
          <mxGeometry relative="1" as="geometry" />
        </mxCell>
        <mxCell id="EXt4HgNgpCg-pAP-4QSE-15" value="Start" style="rounded=1;whiteSpace=wrap;html=1;" parent="1" vertex="1">
          <mxGeometry x="360" y="-930" width="120" height="50" as="geometry" />
        </mxCell>
        <mxCell id="EXt4HgNgpCg-pAP-4QSE-23" value="" style="edgeStyle=orthogonalEdgeStyle;rounded=0;orthogonalLoop=1;jettySize=auto;html=1;" parent="1" source="EXt4HgNgpCg-pAP-4QSE-16" target="EXt4HgNgpCg-pAP-4QSE-18" edge="1">
          <mxGeometry relative="1" as="geometry" />
        </mxCell>
        <mxCell id="EXt4HgNgpCg-pAP-4QSE-16" value="generaar random getal" style="rounded=0;whiteSpace=wrap;html=1;" parent="1" vertex="1">
          <mxGeometry x="360" y="-840" width="120" height="60" as="geometry" />
        </mxCell>
        <mxCell id="EXt4HgNgpCg-pAP-4QSE-17" value="vraag getal aan gebruiker" style="shape=parallelogram;perimeter=parallelogramPerimeter;whiteSpace=wrap;html=1;fixedSize=1;" parent="1" vertex="1">
          <mxGeometry x="360" y="-750" width="120" height="60" as="geometry" />
        </mxCell>
        <mxCell id="EXt4HgNgpCg-pAP-4QSE-21" style="edgeStyle=orthogonalEdgeStyle;rounded=0;orthogonalLoop=1;jettySize=auto;html=1;entryX=1;entryY=0.5;entryDx=0;entryDy=0;" parent="1" target="EXt4HgNgpCg-pAP-4QSE-17" edge="1">
          <mxGeometry relative="1" as="geometry">
            <mxPoint x="480" y="-630" as="sourcePoint" />
            <mxPoint x="540" y="-770" as="targetPoint" />
            <Array as="points">
              <mxPoint x="590" y="-630" />
              <mxPoint x="590" y="-720" />
            </Array>
          </mxGeometry>
        </mxCell>
        <mxCell id="EXt4HgNgpCg-pAP-4QSE-24" value="" style="edgeStyle=orthogonalEdgeStyle;rounded=0;orthogonalLoop=1;jettySize=auto;html=1;" parent="1" source="EXt4HgNgpCg-pAP-4QSE-18" target="EXt4HgNgpCg-pAP-4QSE-19" edge="1">
          <mxGeometry relative="1" as="geometry" />
        </mxCell>
        <mxCell id="EXt4HgNgpCg-pAP-4QSE-18" value="als getal = randomgetal" style="rhombus;whiteSpace=wrap;html=1;" parent="1" vertex="1">
          <mxGeometry x="360" y="-670" width="120" height="80" as="geometry" />
        </mxCell>
        <mxCell id="EXt4HgNgpCg-pAP-4QSE-25" value="" style="edgeStyle=orthogonalEdgeStyle;rounded=0;orthogonalLoop=1;jettySize=auto;html=1;" parent="1" source="EXt4HgNgpCg-pAP-4QSE-19" target="EXt4HgNgpCg-pAP-4QSE-20" edge="1">
          <mxGeometry relative="1" as="geometry" />
        </mxCell>
        <mxCell id="EXt4HgNgpCg-pAP-4QSE-19" value="druk af dat het gedaan is" style="shape=parallelogram;perimeter=parallelogramPerimeter;whiteSpace=wrap;html=1;fixedSize=1;" parent="1" vertex="1">
          <mxGeometry x="360" y="-550" width="120" height="60" as="geometry" />
        </mxCell>
        <mxCell id="EXt4HgNgpCg-pAP-4QSE-20" value="einde" style="rounded=1;whiteSpace=wrap;html=1;" parent="1" vertex="1">
          <mxGeometry x="360" y="-450" width="120" height="40" as="geometry" />
        </mxCell>
      </root>
    </mxGraphModel>
  </diagram>
</mxfile>
